# AST/ASF file generated using VICON BodyLanguage
# -----------------------------------------------
:version 1.10
:name VICON
:units
  mass 1.0
  length 0.45
  angle deg
:documentation
   .ast/.asf automatically generated from VICON data using
   VICON BodyBuilder and BodyLanguage model FoxedUp or BRILLIANT.MOD
:root
   order TX TY TZ RX RY RZ
   axis XYZ
   position 0 0 0  
   orientation 0 0 0 
:bonedata
  begin
     id 1 
     name lhipjoint
     direction 0.535335 -0.74333 0.401095 
     length 2.04549 
     axis 0 0 0  XYZ
  end
  begin
     id 2 
     name lfemur
     direction 0.34202 -0.939693 0  
     length 6.95643  
     axis 0 0 20  XYZ
    dof rx ry rz
    limits (-160.0 20.0)
           (-70.0 70.0)
           (-60.0 70.0)
  end
  begin
     id 3 
     name ltibia
     direction 0.34192 -0.939729 0   
     length 5.55969   
     axis 0 0 20   XYZ
    dof rx
    limits (-10.0 170.0)
  end
  begin
     id 4 
     name lfoot
     direction 0.216943 -0.596046 0.773088   
     length 2.27918   
     axis -90 7.62852e-016 20   XYZ
    dof rx rz
    limits (-45.0 90.0)
           (-70.0 20.0)
  end
  begin
     id 5 
     name ltoes
     direction 1.53519e-011 -4.21748e-011 1   
     length 1.05562   
     axis -90 7.62852e-016 20   XYZ
    dof rx
    limits (-90.0 20.0)
  end
  begin
     id 6 
     name rhipjoint
     direction -0.576368 -0.719173 0.38806   
     length 2.1142  
     axis 0 0 0  XYZ 
  end
  begin
     id 7 
     name rfemur
     direction -0.34202 -0.939693 0   
     length 7.07928   
     axis 0 0 -20   XYZ
    dof rx ry rz
    limits (-160.0 20.0)
           (-70.0 70.0)
           (-70.0 60.0)
  end
  begin
     id 8 
     name rtibia
     direction -0.34202 -0.939693 0   
     length 5.79974   
     axis 0 0 -20   XYZ
    dof rx
    limits (-10.0 170.0)
 end
 begin
     id 9 
     name rfoot
     direction -0.189288 -0.520065 0.832888   
     length 2.42173  
     axis -90 -7.62852e-016 -20   XYZ
    dof rx rz
    limits (-45.0 90.0)
           (-20.0 70.0)
  end
  begin
     id 10 
     name rtoes
     direction -1.53574e-011 -4.21658e-011 1   
     length 1.14469   
     axis -90 -7.62852e-016 -20   XYZ
    dof rx
    limits (-90.0 20.0)
  end
  begin
     id 11 
     name lowerback
     direction -0.00135702 0.993803 0.111144   
     length 1.91308   
     axis 0 0 0   XYZ
    dof rx ry rz
    limits (-20.0 45.0)
           (-30.0 30.0)
           (-30.0 30.0)
  end
  begin
     id 12 
     name upperback
     direction -0.0056745 0.999813 0.0184631   
     length 1.9212   
     axis 0 0 0   XYZ
    dof rx ry rz
    limits (-20.0 45.0)
           (-30.0 30.0)
           (-30.0 30.0)
  end
  begin
     id 13 
     name thorax
     direction -0.00733434 0.999426 -0.0330788   
     length 1.94196   
     axis 0 0 0   XYZ
    dof rx ry rz
    limits (-20.0 45.0)
           (-30.0 30.0)
           (-30.0 30.0)
  end
  begin
     id 14 
     name lowerneck
     direction 0.0563074 0.996944 -0.0541571   
     length 2.34257   
     axis 0 0 0   XYZ
    dof rx ry rz
    limits (-20.0 45.0)
           (-30.0 30.0)
           (-30.0 30.0)
  end
  begin
     id 15 
     name upperneck
     direction -0.0544519 0.976166 -0.210085   
     length 2.32506   
     axis 0 0 0   XYZ
    dof rx ry rz
    limits (-20.0 45.0)
           (-30.0 30.0)
           (-30.0 30.0)
  end
  begin
     id 16
     name head
     direction -0.0226035 0.997615 -0.0652205  
     length 2.3648  
     axis 0 0 0   XYZ
    dof rx ry rz
    limits (-20.0 45.0)
           (-30.0 30.0)
           (-30.0 30.0)
  end
  begin
     id 17 
     name lclavicle
     direction 0.92109 0.381297 -0.0787716  
     length 4.0487  
     axis 0 0 0   XYZ
    dof ry rz
    limits (-20.0 10.0)
           (0.0 20.0)
  end
  begin
     id 18 
     name lhumerus
     direction 1 -4.48986e-011 3.56724e-027   
     length 4.94991   
     axis 180 -30 -90   XYZ
    dof rx ry rz
    limits (-60.0 90.0)
           (-90.0 90.0)
           (-90.0 90.0)
  end
  begin
     id 19
     name lradius
     direction 1 -4.48981e-011 8.62147e-027   
     length 2.7606   
     axis 180 -30 -90   XYZ
    dof rx
    limits (-10.0 170.0)
  end
  begin
     id 20
     name lwrist
     direction 1 -4.48989e-011 1.59799e-026   
     length 1.3803   
     axis -1.17785e-014 90 90   XYZ
    dof ry
    limits (-180.0 0.0)
 end
  begin
     id 21 
     name lhand
     direction 1 -4.48896e-011 3.19599e-026   
     length 0.843936   
     axis -2.03931e-014 90 90   XYZ
    dof rx rz
    limits (-90.0 90.0)
           (-45.0 45.0)
  end
  begin
     id 22 
     name lfingers
     direction 1 -4.48887e-011 6.39197e-026   
     length 0.680403   
     axis -4.07862e-014 90 90   XYZ
    dof rx
    limits (0.0 90.0)
  end
  begin
     id 23
     name lthumb
     direction 0.707107 -6.348e-011 0.707107   
     length 0.976926   
     axis -90 45 2.85299e-015   XYZ
    dof rx rz
    limits (-45.0 45.0)
           (-45.0 45.0)
  end
  begin
     id 24 
     name rclavicle
     direction -0.951104 0.307692 -0.026953   
     length 4.21801  
     axis 0 0 0   XYZ 
    dof ry rz
    limits (-10.0 20.0)
           (-20.0 0.0)
  end
  begin
     id 25 
     name rhumerus
     direction -1 -4.4896e-011 -1.8171e-018  
     length 4.32982   
     axis 180 30 90   XYZ
    dof rx ry rz
    limits (-90.0 60.0)
           (-90.0 90.0)
           (-90.0 90.0)
  end
  begin
     id 26 
     name rradius
     direction -1 -4.48959e-011 8.25165e-027   
     length 3.20057   
     axis 180 30 90   XYZ
    dof rx
    limits (-10.0 170.0)
  end
  begin
     id 27 
     name rwrist
     direction -1 -4.48997e-011 1.59799e-026   
     length 1.60029   
     axis -1.17785e-014 -90 -90   XYZ
    dof ry
    limits (-180.0 0.0)
  end
  begin
     id 28
     name rhand
     direction -1 -4.49023e-011 3.19599e-026   
     length 0.960433   
     axis -2.03931e-014 -90 -90   XYZ
    dof rx rz
    limits (-90.0 90.0)
           (-45.0 45.0)
  end
  begin
     id 29
     name rfingers
     direction -1 -4.48802e-011 6.39197e-026   
     length 0.774326   
     axis -4.07862e-014 -90 -90   XYZ
    dof rx
    limits (0.0 90.0)
  end
  begin
     id 30
     name rthumb
     direction -0.707107 -6.34876e-011 0.707107   
     length 1.11178   
     axis -90 -45 -2.85299e-015   XYZ
    dof rx rz
    limits (-45.0 45.0)
           (-45.0 45.0)
  end
:hierarchy
  begin
    root lhipjoint rhipjoint lowerback
    lhipjoint lfemur
    lfemur ltibia
    ltibia lfoot
    lfoot ltoes
    rhipjoint rfemur
    rfemur rtibia
    rtibia rfoot
    rfoot rtoes
    lowerback upperback
    upperback thorax
    thorax lowerneck lclavicle rclavicle
    lowerneck upperneck
    upperneck head
    lclavicle lhumerus
    lhumerus lradius
    lradius lwrist
    lwrist lhand lthumb
    lhand lfingers
    rclavicle rhumerus
    rhumerus rradius
    rradius rwrist
    rwrist rhand rthumb
    rhand rfingers
end

#!OML:ASF C:\KaitlinTest1\Natural Motions\Nikki\Session 2\Nikki.ASF
:FULLY-SPECIFIED
:DEGREES
375
root -11.8061 16.5205 4.25387 9.61054 88.771 -0.899586
lowerback -11.6266 -3.17192 2.4173
upperback -8.60393 -3.98644 0.777278
thorax -2.6196 -1.912 -0.908334
lowerneck -7.6604 -8.4385 -11.903
upperneck 7.39303 48.6001 6.68237
head 171.734 55.5952 -35.4559
rclavicle 3.64273e-014 -1.27222e-014
rhumerus -23.5644 38.0446 -100.447
rradius 72.2556
rwrist -11.3239
rhand -35.8316 9.4692
rfingers 7.12502
rthumb -8.9473 -20.3211
lclavicle 3.64273e-014 -1.27222e-014
lhumerus -16.2788 -17.9798 81.8038
lradius 94.3523
lwrist 19.4589
lhand -35.0651 -0.378796
lfingers 7.12502
lthumb -8.20763 29.4418
rfemur -10.7272 -22.8933 21.3862
rtibia 18.0772
rfoot -15.2583 13.7524
rtoes -8.26944e-014
lfemur -12.4931 19.0137 -18.6736
ltibia 19.3298
lfoot -9.22681 -19.6605
ltoes -1.74931e-014
376
root -11.7848 16.5129 4.24575 1.34946 89.087 -8.87221
lowerback -11.8369 -3.31575 2.50261
upperback -8.37799 -4.20555 0.783802
thorax -2.28045 -2.02501 -0.988355
lowerneck -7.74507 -8.41144 -11.762
upperneck 7.34955 48.5305 6.69929
head 171.692 55.8444 -35.5247
rclavicle -7.71285e-014 -1.59028e-014
rhumerus -25.2222 36.8496 -101.417
rradius 70.6616
rwrist -10.9356
rhand -35.9285 9.38821
rfingers 7.12502
rthumb -9.04084 -20.398
lclavicle -7.71285e-014 -1.59028e-014
lhumerus -19.4243 -16.1476 83.141
lradius 93.7912
lwrist 19.3146
lhand -35.0139 -0.863068
lfingers 7.12502
lthumb -8.15816 28.9594
rfemur -10.1949 -22.4939 21.3346
rtibia 17.9478
rfoot -15.1912 13.0356
rtoes -3.10104e-014
lfemur -12.1861 18.329 -18.4175
ltibia 19.4989
lfoot -9.4101 -19.2168
ltoes -1.59028e-014
377
root -11.7601 16.5017 4.2425 12.0818 89.1215 2.55753
lowerback -11.72 -3.39633 2.11884
upperback -7.97872 -4.31301 0.727948
thorax -1.89639 -2.07067 -0.851726
lowerneck -7.91829 -8.41643 -11.6366
upperneck 7.28534 48.4916 6.69166
head 171.619 56.007 -35.6261
rclavicle -5.89397e-014 -2.66371e-014
rhumerus -26.6396 35.5642 -102.136
rradius 68.9174
rwrist -10.5787
rhand -36.0139 9.46325
rfingers 7.12502
rthumb -9.12323 -20.3194
lclavicle -5.89397e-014 -2.66371e-014
lhumerus -21.504 -15.3988 84.0361
lradius 92.8315
lwrist 19.3909
lhand -35.977 -0.164564
lfingers 7.12502
lthumb -9.08765 29.6197
rfemur -9.14444 -22.019 20.7017
rtibia 17.8757
rfoot -15.2458 12.4875
rtoes -1.00187e-013
lfemur -11.2294 17.6704 -18.3521
ltibia 19.6079
lfoot -9.69867 -18.5991
ltoes -3.18055e-015
378
root -11.7524 16.4938 4.23955 -5.39453 89.4414 -14.5706
lowerback -11.7572 -3.49831 2.16028
upperback -7.74227 -4.4706 0.742263
thorax -1.63366 -2.15251 -0.886194
lowerneck -7.97488 -8.45394 -11.5004
upperneck 7.29172 48.5202 6.74576
head 171.631 55.9449 -35.6551
rclavicle 5.23301e-014 2.78299e-015
rhumerus -27.8848 34.0706 -102.802
rradius 66.9445
rwrist -9.97908
rhand -36.1845 9.2633
rfingers 7.12502
rthumb -9.28786 -20.5121
lclavicle 5.23301e-014 2.78299e-015
lhumerus -23.4636 -14.5512 84.8557
lradius 91.5918
lwrist 20.1164
lhand -36.5661 -0.0813896
lfingers 7.12502
lthumb -9.65599 29.6773
rfemur -8.6475 -21.5946 20.7607
rtibia 17.852
rfoot -15.2262 11.7659
rtoes -1.11319e-014
lfemur -10.8727 17.0929 -18.0024
ltibia 19.685
lfoot -9.74594 -18.2997
ltoes -2.22639e-014
379
root -11.7431 16.4885 4.2337 -26.1181 89.7394 -34.9784
lowerback -11.835 -3.58045 2.06113
upperback -7.48728 -4.5908 0.708961
thorax -1.32086 -2.21121 -0.892648
lowerneck -8.10682 -8.62848 -11.2687
upperneck 7.20343 48.2812 6.65419
head 171.008 56.2256 -36.0602
rclavicle -1.35174e-014 3.97569e-016
rhumerus -28.8612 32.1917 -103.194
rradius 64.7652
rwrist -8.86297
rhand -36.1294 8.85552
rfingers 7.12502
rthumb -9.23462 -20.9223
lclavicle -1.35174e-014 3.97569e-016
lhumerus -25.1934 -13.7787 85.6632
lradius 90.0357
lwrist 20.4462
lhand -37.2995 0.246267
lfingers 7.12502
lthumb -10.3635 29.9709
rfemur -8.17678 -21.4482 20.6215
rtibia 17.8405
rfoot -15.2234 11.2838
rtoes -2.8625e-014
lfemur -10.5253 16.5384 -17.8701
ltibia 19.7457
lfoot -9.83082 -18.065
ltoes -1.27222e-014
380
root -11.7353 16.4829 4.22795 53.0059 90.1672 44.4537
lowerback -11.8486 -3.64639 1.9313
upperback -7.28579 -4.681 0.652624
thorax -1.09769 -2.2547 -0.897171
lowerneck -8.00731 -8.62644 -11.2782
upperneck 7.11334 48.0105 6.65812
head 171.388 56.3308 -35.7753
rclavicle 2.5842e-014 5.36719e-015
rhumerus -29.9536 30.5509 -103.573
rradius 62.7981
rwrist -8.68442
rhand -36.3241 8.17706
rfingers 7.12502
rthumb -9.4225 -21.5923
lclavicle 2.5842e-014 5.36719e-015
lhumerus -26.807 -12.9992 86.4942
lradius 88.3333
lwrist 20.9797
lhand -37.9968 0.928293
lfingers 7.12502
lthumb -11.0362 30.6182
rfemur -7.71947 -21.3896 20.4535
rtibia 17.7889
rfoot -15.2264 10.9084
rtoes 3.02153e-014
lfemur -10.2451 16.1615 -17.79
ltibia 19.9089
lfoot -9.94178 -18.0394
ltoes 5.24792e-014
381
root -11.7231 16.4761 4.22445 78.9889 90.3058 70.6556
lowerback -12.0517 -3.55101 1.98618
upperback -7.05546 -4.57859 0.614176
thorax -0.751029 -2.2053 -0.979331
lowerneck -7.96103 -8.73744 -11.1352
upperneck 6.98861 47.5993 6.61237
head 171.325 56.6239 -35.7737
rclavicle 1.23246e-014 -3.18055e-015
rhumerus -30.6458 28.7204 -103.721
rradius 60.4714
rwrist -7.94236
rhand -36.2501 8.0163
rfingers 7.12502
rthumb -9.35112 -21.7563
lclavicle 1.23246e-014 -3.18055e-015
lhumerus -28.0845 -12.2099 87.0995
lradius 86.2529
lwrist 20.7486
lhand -38.3008 2.32536
lfingers 7.12502
lthumb -11.3294 31.9993
rfemur -7.40056 -21.2827 20.4994
rtibia 17.7826
rfoot -15.3053 10.8494
rtoes -4.92986e-014
lfemur -9.99535 16.2217 -17.5359
ltibia 20.0538
lfoot -10.1429 -18.0537
ltoes 1.43125e-014
382
root -11.6998 16.4708 4.21724 98.6062 90.5094 90.3418
lowerback -12.5696 -3.37921 2.18716
upperback -6.81831 -4.39308 0.572702
thorax -0.237899 -2.11371 -1.1552
lowerneck -7.96706 -8.93093 -10.9581
upperneck 6.85715 47.1628 6.51718
head 170.95 56.9109 -35.9655
rclavicle 1.74931e-014 1.39149e-015
rhumerus -31.1957 27.0756 -103.814
rradius 57.8334
rwrist -8.19228
rhand -36.7949 8.65775
rfingers 7.12502
rthumb -9.87676 -21.0906
lclavicle 1.74931e-014 1.39149e-015
lhumerus -29.2454 -11.377 87.7082
lradius 83.9222
lwrist 20.7431
lhand -38.5411 2.78147
lfingers 7.12502
lthumb -11.5611 32.4426
rfemur -7.25948 -21.4338 20.6156
rtibia 17.8175
rfoot -15.3391 11.1517
rtoes 2.62396e-014
lfemur -9.88824 16.5754 -17.2801
ltibia 20.2428
lfoot -10.3182 -18.2948
ltoes -2.8625e-014
383
root -11.6859 16.46 4.21104 96.2843 90.574 88.4453
lowerback -12.5936 -3.29246 2.1738
upperback -6.54363 -4.29723 0.476838
thorax 0.0604036 -2.06807 -1.24779
lowerneck -8.00321 -9.15031 -10.6882
upperneck 6.85718 47.0419 6.5284
head 170.498 56.8868 -36.2683
rclavicle 7.42212e-014 1.53064e-014
rhumerus -31.4857 25.247 -103.777
rradius 54.9315
rwrist -7.33021
rhand -36.9928 9.33427
rfingers 7.12502
rthumb -10.0677 -20.4049
lclavicle 7.42212e-014 1.53064e-014
lhumerus -30.3193 -10.5045 88.1963
lradius 81.581
lwrist 20.4345
lhand -38.7043 4.7744
lfingers 7.12502
lthumb -11.7185 34.4266
rfemur -6.69872 -21.7904 20.4511
rtibia 17.8215
rfoot -15.4785 11.4794
rtoes 1.19271e-014
lfemur -9.43738 17.0255 -17.0605
ltibia 20.4228
lfoot -10.4829 -18.7919
ltoes -5.40694e-014
384
root -11.675 16.4474 4.20146 101.03 90.6296 93.6307
lowerback -12.4756 -3.20941 2.1799
upperback -6.31565 -4.20373 0.412403
thorax 0.234363 -2.025 -1.3083
lowerneck -8.04065 -9.34053 -10.4667
upperneck 6.84716 46.9077 6.50434
head 169.99 56.9046 -36.5881
rclavicle -7.64327e-014 -1.13307e-014
rhumerus -31.9802 23.76 -103.848
rradius 52.2721
rwrist -7.41696
rhand -37.6873 9.23877
rfingers 7.12502
rthumb -10.7376 -20.4668
lclavicle -7.64327e-014 -1.13307e-014
lhumerus -31.2786 -9.61543 88.6357
lradius 79.0631
lwrist 20.4137
lhand -38.5477 6.01805
lfingers 7.12502
lthumb -11.5675 35.6788
rfemur -6.16764 -22.0895 20.2447
rtibia 17.8423
rfoot -15.5624 11.8367
rtoes 1.35174e-014
lfemur -8.95945 17.5037 -16.8677
ltibia 20.5785
lfoot -10.6881 -19.2433
ltoes 4.77083e-014
385
root -11.6678 16.4498 4.19944 95.9003 90.684 88.3636
lowerback -12.7999 -3.16434 2.11501
upperback -6.29081 -4.14015 0.371708
thorax 0.438526 -1.98787 -1.32676
lowerneck -7.84938 -9.34438 -10.4304
upperneck 6.81204 46.675 6.57704
head 170.458 56.9829 -36.2538
rclavicle 2.02263e-014 6.75868e-015
rhumerus -32.2066 22.0165 -103.735
rradius 49.3207
rwrist -6.61133
rhand -37.9777 9.72024
rfingers 7.12502
rthumb -11.0177 -19.9706
lclavicle 2.02263e-014 6.75868e-015
lhumerus -32.216 -8.60235 88.9498
lradius 76.4594
lwrist 20.2141
lhand -38.099 6.77902
lfingers 7.12502
lthumb -11.1348 36.4636
rfemur -6.30602 -22.1865 20.3496
rtibia 17.8855
rfoot -15.6227 11.8647
rtoes -3.10104e-014
lfemur -9.15484 17.918 -16.8466
ltibia 20.6778
lfoot -10.7327 -19.6887
ltoes -4.77083e-014
386
root -11.6596 16.4453 4.19477 94.1046 90.717 86.6956
lowerback -12.9282 -3.15039 2.02743
upperback -6.14526 -4.12216 0.302479
thorax 0.661944 -1.97685 -1.3603
lowerneck -7.88673 -9.38963 -10.2136
upperneck 6.86692 46.796 6.7277
head 170.641 56.8595 -36.2231
rclavicle 2.21148e-015 -1.18277e-014
rhumerus -32.2742 20.532 -103.671
rradius 46.2749
rwrist -6.05096
rhand -38.1572 9.88638
rfingers 7.12502
rthumb -11.1908 -19.7952
lclavicle 2.21148e-015 -1.18277e-014
lhumerus -32.9272 -7.67511 89.101
lradius 73.6409
lwrist 20.414
lhand -38.0627 7.24654
lfingers 7.12502
lthumb -11.0997 36.933
rfemur -6.11861 -22.2539 20.3038
rtibia 17.8889
rfoot -15.6521 11.8816
rtoes -7.55382e-014
lfemur -8.99929 18.1164 -16.7661
ltibia 20.7131
lfoot -10.7757 -19.9196
ltoes -3.18055e-014
387
root -11.6499 16.4423 4.18905 98.2522 90.7222 91.0061
lowerback -13.0589 -3.05926 1.93425
upperback -5.97506 -4.00343 0.263729
thorax 0.91889 -1.91509 -1.34708
lowerneck -7.82059 -9.52632 -10.1455
upperneck 6.68218 46.1836 6.56664
head 170.299 57.3607 -36.3387
rclavicle 2.80659e-014 1.98785e-016
rhumerus -32.3156 19.1514 -103.357
rradius 43.4941
rwrist -5.30162
rhand -38.2643 9.61107
rfingers 7.12502
rthumb -11.2942 -20.0649
lclavicle 2.80659e-014 1.98785e-016
lhumerus -33.5417 -6.71203 89.3453
lradius 70.8272
lwrist 20.343
lhand -37.8673 7.64052
lfingers 7.12502
lthumb -10.9113 37.337
rfemur -5.84487 -22.117 20.2082
rtibia 17.8135
rfoot -15.6716 11.771
rtoes 5.32743e-014
lfemur -8.74464 18.1865 -16.7105
ltibia 20.6833
lfoot -10.795 -19.9475
ltoes 9.22361e-014
